<?xml version="1.0" encoding="UTF-8" standalone="no"?>
<svg
   width="240px"
   height="64px"
   viewBox="0 0 240 64"
   version="1.1"
   id="svg1036"
   sodipodi:docname="logo.svg"
   inkscape:version="1.2-dev (9ee32be, 2021-06-19)"
   xmlns:inkscape="http://www.inkscape.org/namespaces/inkscape"
   xmlns:sodipodi="http://sodipodi.sourceforge.net/DTD/sodipodi-0.dtd"
   xmlns="http://www.w3.org/2000/svg"
   xmlns:svg="http://www.w3.org/2000/svg"
   xmlns:rdf="http://www.w3.org/1999/02/22-rdf-syntax-ns#"
   xmlns:cc="http://creativecommons.org/ns#"
   xmlns:dc="http://purl.org/dc/elements/1.1/">
  <defs
     id="defs1040" />
  <sodipodi:namedview
     id="namedview1038"
     pagecolor="#ffffff"
     bordercolor="#666666"
     borderopacity="1.0"
     inkscape:pageshadow="2"
     inkscape:pageopacity="0.0"
     inkscape:pagecheckerboard="0"
     showgrid="false"
     inkscape:zoom="1.4268775"
     inkscape:cx="102.67174"
     inkscape:cy="7.3587254"
     inkscape:window-width="1298"
     inkscape:window-height="847"
     inkscape:window-x="0"
     inkscape:window-y="25"
     inkscape:window-maximized="0"
     inkscape:current-layer="svg1036" />
  <title
     id="title1030">logo</title>
  <metadata
     id="metadata1122">
    <rdf:RDF>
      <cc:Work
         rdf:about="">
        <dc:title>logo</dc:title>
      </cc:Work>
    </rdf:RDF>
  </metadata>
  <path
     style="fill:#079bff;stroke:none;stroke-width:0.742809"
     d="M 7.0057419,54.980576 V 32.847854 20.45353 c 0,-4.483469 0.9453386,-11.5918976 -0.3760601,-15.732673 C 5.7981478,2.1151779 3.3216885,1.608289 2.1313459,4.0199845 0.51438554,7.2960257 1.3965333,13.992369 1.3965333,17.797604 v 29.215192 c 0,3.857113 -0.7129865,9.502551 0.4626251,13.077428 1.963663,5.971231 16.6648436,2.867781 20.7277186,2.858131 1.884943,-0.0045 4.931678,0.560932 6.09347,-2.153868 1.636144,-3.823117 -1.511993,-5.666508 -3.602919,-5.796825 -5.999734,-0.374043 -12.065657,-0.01709 -18.0716861,-0.01709 m 126.5188181,0 V 33.733163 20.45353 c 0,-4.532604 0.91928,-11.5528377 -0.46245,-15.732673 -0.98224,-2.9696588 -3.70208,-2.9696659 -4.68431,0 -1.17918,3.5658116 -0.46245,9.22645 -0.46245,13.076747 v 29.215192 c 0,3.901644 -1.11,12.323411 1.51698,14.89178 4.96726,4.856273 11.23961,-5.304859 4.09223,-6.924 m 65.44076,-30.100502 c -5.105,-3.79523 -10.68866,-6.374046 -16.20438,-2.264531 -11.46584,8.543142 -10.45307,34.440639 2.49298,39.511069 18.13208,7.101416 18.69737,-21.207486 18.69737,-38.131846 0,-4.343414 1.60548,-18.724203 -1.44157,-21.1709046 -1.88033,-1.5095835 -3.18665,1.1628798 -3.45216,3.4818047 -0.67746,5.9157309 -0.0922,12.5813099 -0.0922,18.5744079 M 54.995637,58.521811 c 1.159486,3.262894 4.38877,6.109428 5.411079,0.83343 1.119972,-5.780093 0.625302,-15.286009 0.01059,-21.195534 -1.99264,-19.155959 -20.684642,-24.032948 -27.294409,-7.081762 -7.889476,20.232937 8.910727,39.989047 21.872735,27.443866 m 21.813589,-37.65431 c -20.883021,5.596302 -10.586446,52.728641 8.724812,40.336884 1.82237,-1.169227 6.85383,-8.10456 2.401365,-9.43509 -2.549697,-0.761897 -4.915537,2.566422 -7.386705,3.008368 -6.046726,1.081404 -11.346182,-8.508881 -9.564947,-16.617956 1.363661,-6.210884 6.233078,-11.07725 10.811438,-9.163212 1.9894,0.831659 5.078204,4.881505 7.100012,2.269932 1.846676,-2.385199 -0.06357,-6.004607 -1.527575,-7.579749 -2.865682,-3.083973 -7.114346,-3.742112 -10.5584,-2.819177 m 29.292529,0.05462 c -18.590782,6.051883 -12.374533,47.489207 6.23245,41.42369 18.59453,-6.061444 12.31534,-47.461496 -6.23245,-41.42369 m 58.58507,37.599687 c 1.23839,3.132665 4.37518,6.179633 5.41101,0.83343 1.14677,-5.918556 0.70614,-16.076235 -0.0935,-22.080843 -2.55406,-19.193319 -21.42531,-22.59556 -27.51878,-5.311853 -7.15548,20.295617 9.58302,38.771836 22.20125,26.559266 m 67.93374,0 c 0.77719,3.63375 3.82112,5.822411 4.78778,0.83343 1.153,-5.951224 0.4961,-15.053881 0.14023,-21.195534 -1.6784,-28.9406488 -35.03138,-18.19469 -28.31965,10.623707 0.87628,3.761146 2.56528,6.918511 4.70363,9.437126 2.43004,2.862735 5.55374,4.572443 8.71609,4.6793 3.71703,0.125626 6.7672,-1.995574 9.97193,-4.378029 M 43.77722,28.770387 C 55.387409,25.007559 59.596622,50.918424 48.139938,54.631498 36.529749,58.394415 32.320536,32.483461 43.77722,28.770387 m 63.57103,-0.04719 c 11.77248,-3.149663 15.50946,22.802723 3.73947,25.955485 C 99.264134,57.845789 95.556448,31.878087 107.34825,28.7232 m 46.12016,0.04719 c 11.61044,-3.762828 15.81921,22.148037 4.36272,25.861111 -11.61044,3.762917 -15.81922,-22.148037 -4.36272,-25.861111 m 33.65525,0 c 11.63475,-3.770707 16.02364,22.081728 4.36272,25.861111 -11.61044,3.762828 -15.81922,-22.148037 -4.36272,-25.861111 m 34.2785,-0.05675 c 11.92019,-2.969238 15.18288,23.462809 3.11622,26.077038 -11.66964,2.528353 -14.64252,-23.205804 -3.11622,-26.077038 z"
     id="path3710" />
</svg>
