<?xml version="1.0" encoding="UTF-8" standalone="no"?> <svg width="64" height="64" viewBox="0 0 64 64" fill="none" xmlns="http://www.w3.org/2000/svg">
<path d="M55.9999 51H53.8999C58.4971 45.74 61.021 38.9857 60.9999 32C60.9999 24.3087 57.9445 16.9325 52.506 11.4939C47.0674 6.05535 39.6912 3 31.9999 3C24.3086 3 16.9323 6.05535 11.4938 11.4939C6.05524 16.9325 2.99989 24.3087 2.99989 32C2.97875 38.9857 5.50273 45.74 10.0999 51H7.99989C6.6738 51 5.40204 51.5268 4.46435 52.4645C3.52667 53.4021 2.99989 54.6739 2.99989 56C2.99989 57.3261 3.52667 58.5979 4.46435 59.5355C5.40204 60.4732 6.6738 61 7.99989 61H55.9999C57.326 61 58.5977 60.4732 59.5354 59.5355C60.4731 58.5979 60.9999 57.3261 60.9999 56C60.9999 54.6739 60.4731 53.4021 59.5354 52.4645C58.5977 51.5268 57.326 51 55.9999 51V51ZM4.99989 32C4.99768 27.5639 6.08852 23.1957 8.17595 19.2814C10.2634 15.3672 13.2831 12.0276 16.9681 9.55788C20.6531 7.08818 24.8899 5.56448 29.3038 5.12151C33.7176 4.67854 38.1727 5.32994 42.275 7.01812C46.3772 8.7063 50.0004 11.3792 52.824 14.8006C55.6476 18.222 57.5848 22.2864 58.4641 26.6344C59.3434 30.9825 59.1379 35.4802 57.8657 39.7299C56.5935 43.9796 54.2938 47.8504 51.1699 51H48.9999V29C48.9999 29 48.9999 28.95 48.9999 28.93C49.3151 28.8274 49.6033 28.6555 49.8434 28.4269C50.0834 28.1983 50.2693 27.9189 50.3872 27.6091C50.5052 27.2993 50.5523 26.9671 50.5251 26.6367C50.4978 26.3064 50.397 25.9863 50.2299 25.7L47.9499 21.75C47.7533 21.4094 47.4705 21.1266 47.13 20.93C46.7894 20.7333 46.4031 20.6298 46.0099 20.6298C45.6167 20.6298 45.2303 20.7333 44.8898 20.93C44.5493 21.1266 44.2665 21.4094 44.0699 21.75L41.7799 25.7C41.6126 25.9856 41.5113 26.3051 41.4835 26.6349C41.4556 26.9647 41.5018 27.2966 41.6188 27.6062C41.7358 27.9159 41.9205 28.1955 42.1594 28.4245C42.3984 28.6536 42.6856 28.8263 42.9999 28.93C42.9999 28.93 42.9999 29 42.9999 29V37.13H38.9999V27.47C38.9999 27.2048 38.8945 26.9504 38.707 26.7629C38.5195 26.5754 38.2651 26.47 37.9999 26.47H35.9999V20.79C36.3565 20.7319 36.6936 20.5879 36.9823 20.3706C37.271 20.1533 37.5025 19.869 37.657 19.5424C37.8114 19.2158 37.8842 18.8565 37.869 18.4955C37.8539 18.1345 37.7512 17.7825 37.5699 17.47L33.9399 11.19C33.7457 10.8474 33.4634 10.5629 33.1223 10.366C32.7812 10.1691 32.3937 10.0669 31.9999 10.07C31.6065 10.069 31.2198 10.172 30.8791 10.3687C30.5383 10.5654 30.2557 10.8488 30.0599 11.19V11.19L26.4299 17.47C26.2333 17.8105 26.1298 18.1968 26.1298 18.59C26.1298 18.9832 26.2333 19.3695 26.4299 19.71C26.5939 19.9953 26.8203 20.2397 27.0922 20.425C27.3641 20.6103 27.6744 20.7317 27.9999 20.78V26.47H25.9999C25.7347 26.47 25.4803 26.5754 25.2928 26.7629C25.1052 26.9504 24.9999 27.2048 24.9999 27.47V37.13H20.9999V29C20.9999 29 20.9999 28.95 20.9999 28.93C21.3151 28.8274 21.6033 28.6555 21.8434 28.4269C22.0834 28.1983 22.2693 27.9189 22.3872 27.6091C22.5052 27.2993 22.5523 26.9671 22.5251 26.6367C22.4978 26.3064 22.397 25.9863 22.2299 25.7L19.9499 21.75C19.7533 21.4094 19.4705 21.1266 19.13 20.93C18.7894 20.7333 18.4031 20.6298 18.0099 20.6298C17.6167 20.6298 17.2303 20.7333 16.8898 20.93C16.5493 21.1266 16.2665 21.4094 16.0699 21.75L13.7799 25.7C13.6126 25.9856 13.5113 26.3051 13.4835 26.6349C13.4556 26.9647 13.5018 27.2966 13.6188 27.6062C13.7358 27.9159 13.9205 28.1955 14.1594 28.4245C14.3984 28.6536 14.6856 28.8263 14.9999 28.93C14.9999 28.93 14.9999 29 14.9999 29V51H12.8299C10.338 48.5046 8.36356 45.5415 7.01987 42.2809C5.67618 39.0204 4.98971 35.5266 4.99989 32V32ZM35.9999 51V44C35.9999 43.7348 35.8945 43.4804 35.707 43.2929C35.5195 43.1054 35.2651 43 34.9999 43H28.9999C28.7347 43 28.4803 43.1054 28.2928 43.2929C28.1052 43.4804 27.9999 43.7348 27.9999 44V51H20.9999V39.13H42.9999V51H35.9999ZM33.9999 51H29.9999V45H33.9999V51ZM16.9999 51V30H18.9999V51H16.9999ZM20.4899 26.94C20.4679 26.9761 20.4371 27.0061 20.4004 27.0271C20.3636 27.0481 20.3222 27.0594 20.2799 27.06H15.7199C15.6776 27.0594 15.6361 27.0481 15.5994 27.0271C15.5627 27.0061 15.5319 26.9761 15.5099 26.94C15.4898 26.9032 15.4792 26.8619 15.4792 26.82C15.4792 26.7781 15.4898 26.7368 15.5099 26.7L17.7899 22.75C17.9099 22.55 18.0899 22.55 18.2099 22.75L20.4899 26.7C20.51 26.7368 20.5206 26.7781 20.5206 26.82C20.5206 26.8619 20.51 26.9032 20.4899 26.94ZM35.8299 18.71C35.8121 18.7475 35.7837 18.779 35.7481 18.8003C35.7125 18.8217 35.6714 18.832 35.6299 18.83H28.3699C28.3284 18.832 28.2873 18.8217 28.2517 18.8003C28.2161 18.779 28.1876 18.7475 28.1699 18.71C28.1454 18.6748 28.1322 18.6329 28.1322 18.59C28.1322 18.5471 28.1454 18.5052 28.1699 18.47L31.7899 12.19C31.8106 12.1525 31.8411 12.1212 31.878 12.0994C31.9149 12.0777 31.957 12.0662 31.9999 12.0662C32.0428 12.0662 32.0848 12.0777 32.1218 12.0994C32.1587 12.1212 32.1891 12.1525 32.2099 12.19L35.8299 18.47C35.8544 18.5052 35.8676 18.5471 35.8676 18.59C35.8676 18.6329 35.8544 18.6748 35.8299 18.71V18.71ZM29.9999 21H33.9999V26.47H29.9999V21ZM28.9999 28.47H36.9999V37.13H26.9999V28.47H28.9999ZM45.7899 22.75C45.8106 22.7125 45.8411 22.6812 45.878 22.6594C45.9149 22.6377 45.957 22.6262 45.9999 22.6262C46.0428 22.6262 46.0848 22.6377 46.1218 22.6594C46.1587 22.6812 46.1891 22.7125 46.2099 22.75L48.4899 26.7C48.51 26.7368 48.5206 26.7781 48.5206 26.82C48.5206 26.8619 48.51 26.9032 48.4899 26.94C48.4679 26.9761 48.4371 27.0061 48.4004 27.0271C48.3636 27.0481 48.3222 27.0594 48.2799 27.06H43.7199C43.6776 27.0594 43.6361 27.0481 43.5994 27.0271C43.5627 27.0061 43.5319 26.9761 43.5099 26.94C43.4898 26.9032 43.4792 26.8619 43.4792 26.82C43.4792 26.7781 43.4898 26.7368 43.5099 26.7L45.7899 22.75ZM44.9999 38.13V30H46.9999V51H44.9999V38.13ZM55.9999 59H7.99989C7.20424 59 6.44118 58.6839 5.87857 58.1213C5.31596 57.5587 4.99989 56.7956 4.99989 56C4.99989 55.2044 5.31596 54.4413 5.87857 53.8787C6.44118 53.3161 7.20424 53 7.99989 53H55.9999C56.7955 53 57.5586 53.3161 58.1212 53.8787C58.6838 54.4413 58.9999 55.2044 58.9999 56C58.9999 56.7956 58.6838 57.5587 58.1212 58.1213C57.5586 58.6839 56.7955 59 55.9999 59V59Z" fill="black"/>
<path d="M22 16C22.2652 16 22.5196 15.8946 22.7071 15.7071C22.8946 15.5196 23 15.2652 23 15C23 14.7348 22.8946 14.4804 22.7071 14.2929C22.5196 14.1054 22.2652 14 22 14C21.7348 14 21.4804 14.1054 21.2929 14.2929C21.1054 14.4804 21 14.7348 21 15C21 15.2652 21.1054 15.5196 21.2929 15.7071C21.4804 15.8946 21.7348 16 22 16Z" fill="black"/>
<path d="M27 11C27.2652 11 27.5196 10.8946 27.7071 10.7071C27.8946 10.5196 28 10.2652 28 10C28 9.73478 27.8946 9.48043 27.7071 9.29289C27.5196 9.10536 27.2652 9 27 9C26.7348 9 26.4804 9.10536 26.2929 9.29289C26.1054 9.48043 26 9.73478 26 10C26 10.2652 26.1054 10.5196 26.2929 10.7071C26.4804 10.8946 26.7348 11 27 11Z" fill="black"/>
<path d="M34 8C34.2652 8 34.5196 7.89464 34.7071 7.70711C34.8946 7.51957 35 7.26522 35 7C35 6.73478 34.8946 6.48043 34.7071 6.29289C34.5196 6.10536 34.2652 6 34 6C33.7348 6 33.4804 6.10536 33.2929 6.29289C33.1054 6.48043 33 6.73478 33 7C33 7.26522 33.1054 7.51957 33.2929 7.70711C33.4804 7.89464 33.7348 8 34 8Z" fill="black"/>
<path d="M38 13C38.2652 13 38.5196 12.8946 38.7071 12.7071C38.8946 12.5196 39 12.2652 39 12C39 11.7348 38.8946 11.4804 38.7071 11.2929C38.5196 11.1054 38.2652 11 38 11C37.7348 11 37.4804 11.1054 37.2929 11.2929C37.1054 11.4804 37 11.7348 37 12C37 12.2652 37.1054 12.5196 37.2929 12.7071C37.4804 12.8946 37.7348 13 38 13Z" fill="black"/>
<path d="M45 13C45.2652 13 45.5196 12.8946 45.7071 12.7071C45.8946 12.5196 46 12.2652 46 12C46 11.7348 45.8946 11.4804 45.7071 11.2929C45.5196 11.1054 45.2652 11 45 11C44.7348 11 44.4804 11.1054 44.2929 11.2929C44.1054 11.4804 44 11.7348 44 12C44 12.2652 44.1054 12.5196 44.2929 12.7071C44.4804 12.8946 44.7348 13 45 13Z" fill="black"/>
<path d="M40 22C40.2652 22 40.5196 21.8946 40.7071 21.7071C40.8946 21.5196 41 21.2652 41 21C41 20.7348 40.8946 20.4804 40.7071 20.2929C40.5196 20.1054 40.2652 20 40 20C39.7348 20 39.4804 20.1054 39.2929 20.2929C39.1054 20.4804 39 20.7348 39 21C39 21.2652 39.1054 21.5196 39.2929 21.7071C39.4804 21.8946 39.7348 22 40 22Z" fill="black"/>
<path d="M45 18C45.2652 18 45.5196 17.8946 45.7071 17.7071C45.8946 17.5196 46 17.2652 46 17C46 16.7348 45.8946 16.4804 45.7071 16.2929C45.5196 16.1054 45.2652 16 45 16C44.7348 16 44.4804 16.1054 44.2929 16.2929C44.1054 16.4804 44 16.7348 44 17C44 17.2652 44.1054 17.5196 44.2929 17.7071C44.4804 17.8946 44.7348 18 45 18Z" fill="black"/>
<path d="M51 22C51.2652 22 51.5196 21.8946 51.7071 21.7071C51.8946 21.5196 52 21.2652 52 21C52 20.7348 51.8946 20.4804 51.7071 20.2929C51.5196 20.1054 51.2652 20 51 20C50.7348 20 50.4804 20.1054 50.2929 20.2929C50.1054 20.4804 50 20.7348 50 21C50 21.2652 50.1054 21.5196 50.2929 21.7071C50.4804 21.8946 50.7348 22 51 22Z" fill="black"/>
<path d="M56 29C56.2652 29 56.5196 28.8946 56.7071 28.7071C56.8946 28.5196 57 28.2652 57 28C57 27.7348 56.8946 27.4804 56.7071 27.2929C56.5196 27.1054 56.2652 27 56 27C55.7348 27 55.4804 27.1054 55.2929 27.2929C55.1054 27.4804 55 27.7348 55 28C55 28.2652 55.1054 28.5196 55.2929 28.7071C55.4804 28.8946 55.7348 29 56 29Z" fill="black"/>
<path d="M52 33C51.8022 33 51.6089 33.0586 51.4444 33.1685C51.28 33.2784 51.1518 33.4346 51.0761 33.6173C51.0004 33.8 50.9806 34.0011 51.0192 34.1951C51.0578 34.3891 51.153 34.5673 51.2929 34.7071C51.4327 34.847 51.6109 34.9422 51.8049 34.9808C51.9989 35.0194 52.2 34.9996 52.3827 34.9239C52.5654 34.8482 52.7216 34.72 52.8315 34.5556C52.9414 34.3911 53 34.1978 53 34C53 33.7348 52.8946 33.4804 52.7071 33.2929C52.5196 33.1054 52.2652 33 52 33Z" fill="black"/>
<path d="M54 41C54.2652 41 54.5196 40.8946 54.7071 40.7071C54.8946 40.5196 55 40.2652 55 40C55 39.7348 54.8946 39.4804 54.7071 39.2929C54.5196 39.1054 54.2652 39 54 39C53.7348 39 53.4804 39.1054 53.2929 39.2929C53.1054 39.4804 53 39.7348 53 40C53 40.2652 53.1054 40.5196 53.2929 40.7071C53.4804 40.8946 53.7348 41 54 41Z" fill="black"/>
<path d="M51 43C50.8022 43 50.6089 43.0586 50.4444 43.1685C50.28 43.2784 50.1518 43.4346 50.0761 43.6173C50.0004 43.8 49.9806 44.0011 50.0192 44.1951C50.0578 44.3891 50.153 44.5673 50.2929 44.7071C50.4327 44.847 50.6109 44.9422 50.8049 44.9808C50.9989 45.0194 51.2 44.9996 51.3827 44.9239C51.5654 44.8482 51.7216 44.72 51.8315 44.5556C51.9414 44.3911 52 44.1978 52 44C52 43.7348 51.8946 43.4804 51.7071 43.2929C51.5196 43.1054 51.2652 43 51 43Z" fill="black"/>
<path d="M23 22C22.8022 22 22.6089 22.0586 22.4444 22.1685C22.28 22.2784 22.1518 22.4346 22.0761 22.6173C22.0004 22.8 21.9806 23.0011 22.0192 23.1951C22.0578 23.3891 22.153 23.5673 22.2929 23.7071C22.4327 23.847 22.6109 23.9422 22.8049 23.9808C22.9989 24.0194 23.2 23.9996 23.3827 23.9239C23.5654 23.8482 23.7216 23.72 23.8315 23.5556C23.9414 23.3911 24 23.1978 24 23C24 22.7348 23.8946 22.4804 23.7071 22.2929C23.5196 22.1054 23.2652 22 23 22Z" fill="black"/>
<path d="M14 20C14.2652 20 14.5196 19.8946 14.7071 19.7071C14.8946 19.5196 15 19.2652 15 19C15 18.7348 14.8946 18.4804 14.7071 18.2929C14.5196 18.1054 14.2652 18 14 18C13.7348 18 13.4804 18.1054 13.2929 18.2929C13.1054 18.4804 13 18.7348 13 19C13 19.2652 13.1054 19.5196 13.2929 19.7071C13.4804 19.8946 13.7348 20 14 20V20Z" fill="black"/>
<path d="M9 25C8.80222 25 8.60888 25.0586 8.44443 25.1685C8.27998 25.2784 8.15181 25.4346 8.07612 25.6173C8.00043 25.8 7.98063 26.0011 8.01922 26.1951C8.0578 26.3891 8.15304 26.5673 8.29289 26.7071C8.43275 26.847 8.61093 26.9422 8.80491 26.9808C8.99889 27.0194 9.19996 26.9996 9.38268 26.9239C9.56541 26.8482 9.72159 26.72 9.83147 26.5556C9.94135 26.3911 10 26.1978 10 26C10 25.7348 9.89464 25.4804 9.70711 25.2929C9.51957 25.1054 9.26522 25 9 25Z" fill="black"/>
<path d="M8 33C7.80222 33 7.60888 33.0586 7.44443 33.1685C7.27998 33.2784 7.15181 33.4346 7.07612 33.6173C7.00043 33.8 6.98063 34.0011 7.01922 34.1951C7.0578 34.3891 7.15304 34.5673 7.29289 34.7071C7.43275 34.847 7.61093 34.9422 7.80491 34.9808C7.99889 35.0194 8.19996 34.9996 8.38268 34.9239C8.56541 34.8482 8.72159 34.72 8.83147 34.5556C8.94135 34.3911 9 34.1978 9 34C9 33.7348 8.89464 33.4804 8.70711 33.2929C8.51957 33.1054 8.26522 33 8 33V33Z" fill="black"/>
<path d="M12 43C11.8022 43 11.6089 43.0586 11.4444 43.1685C11.28 43.2784 11.1518 43.4346 11.0761 43.6173C11.0004 43.8 10.9806 44.0011 11.0192 44.1951C11.0578 44.3891 11.153 44.5673 11.2929 44.7071C11.4327 44.847 11.6109 44.9422 11.8049 44.9808C11.9989 45.0194 12.2 44.9996 12.3827 44.9239C12.5654 44.8482 12.7216 44.72 12.8315 44.5556C12.9414 44.3911 13 44.1978 13 44C13 43.7348 12.8946 43.4804 12.7071 43.2929C12.5196 43.1054 12.2652 43 12 43Z" fill="black"/>
<path d="M13 37C12.8022 37 12.6089 37.0586 12.4444 37.1685C12.28 37.2784 12.1518 37.4346 12.0761 37.6173C12.0004 37.8 11.9806 38.0011 12.0192 38.1951C12.0578 38.3891 12.153 38.5673 12.2929 38.7071C12.4327 38.847 12.6109 38.9422 12.8049 38.9808C12.9989 39.0194 13.2 38.9996 13.3827 38.9239C13.5654 38.8482 13.7216 38.72 13.8315 38.5556C13.9414 38.3911 14 38.1978 14 38C14 37.7348 13.8946 37.4804 13.7071 37.2929C13.5196 37.1054 13.2652 37 13 37Z" fill="black"/>
</svg>
